HIERARCHY
ROOT Hips
{
  OFFSET 1.44925e-005 102.336 -0.101585
  CHANNELS 6 Xposition Yposition Zposition Zrotation Xrotation Yrotation
  JOINT LeftUpLeg
  {
    OFFSET 8.9458 -8.66707 0.101652
    CHANNELS 3 Zrotation Xrotation Yrotation
    JOINT LeftLeg
    {
      OFFSET 0 -44.4227 1.3727
      CHANNELS 3 Zrotation Xrotation Yrotation
      JOINT LeftFoot
      {
        OFFSET -0.253549 -42.0924 -1.46059
        CHANNELS 3 Zrotation Xrotation Yrotation
        JOINT LeftToes
        {
          OFFSET -0.04 -4.41509 8.4991
          CHANNELS 3 Zrotation Xrotation Yrotation
          End Site
          {
            OFFSET 0.08 -0.047448 9.77979
          }
        }
      }
    }
  }
  JOINT Spine
  {
    OFFSET 0 11.8905 0
    CHANNELS 3 Zrotation Xrotation Yrotation
    JOINT Spine1
    {
      OFFSET 0 25.6574 0.127663
      CHANNELS 3 Zrotation Xrotation Yrotation
      JOINT RightShoulder
      {
        OFFSET -8.99 -0.362252 -0.22
        CHANNELS 3 Zrotation Xrotation Yrotation
        JOINT RightArm
        {
          OFFSET -10.2827 -0.00338 0.322123
          CHANNELS 3 Zrotation Xrotation Yrotation
          JOINT RightForeArm
          {
            OFFSET -26.364 0.099144 -1.42434
            CHANNELS 3 Zrotation Xrotation Yrotation
            JOINT RightHand
            {
              OFFSET -22.0324 0.085362 1.02216
              CHANNELS 3 Zrotation Xrotation Yrotation
              End Site
              {
                OFFSET -13.3284 -0.6 1.50291
              }
            }
          }
        }
      }
      JOINT LeftShoulder1
      {
        OFFSET 8.99 -0.362252 -0.22
        CHANNELS 3 Zrotation Xrotation Yrotation
        JOINT LeftArm
        {
          OFFSET 10.2827 -0.00337999 0.322123
          CHANNELS 3 Zrotation Xrotation Yrotation
          JOINT LeftForeArm
          {
            OFFSET 26.2597 0.099144 -1.42434
            CHANNELS 3 Zrotation Xrotation Yrotation
            JOINT LeftHand
            {
              OFFSET 22.0902 0.085362 1.02216
              CHANNELS 3 Zrotation Xrotation Yrotation
              End Site
              {
                OFFSET 13.419 -0.6 1.50291
              }
            }
          }
        }
      }
      JOINT Head
      {
        OFFSET 0 8.73416 0.011341
        CHANNELS 3 Zrotation Xrotation Yrotation
        End Site
        {
          OFFSET -0.29 12.7742 2.51395
        }
      }
    }
  }
  JOINT RightUpLeg
  {
    OFFSET -8.9458 -8.66707 0.101652
    CHANNELS 3 Zrotation Xrotation Yrotation
    JOINT RightLeg
    {
      OFFSET 0 -44.4227 1.3727
      CHANNELS 3 Zrotation Xrotation Yrotation
      JOINT RightFoot
      {
        OFFSET 0.253549 -42.0924 -1.46059
        CHANNELS 3 Zrotation Xrotation Yrotation
        JOINT RightToes
        {
          OFFSET 0.04 -4.41509 8.4991
          CHANNELS 3 Zrotation Xrotation Yrotation
          End Site
          {
            OFFSET -0.08 -0.137448 9.77979
          }
        }
      }
    }
  }
}
MOTION
Frames:	21
Frame Time:	0.0333333
27.1256 97.7363 2.30527 -14.097 3.42119 -82.2746 2.11121 -12.3313 -9.0662 3.70105 77.1733 13.001 -8.84661 -12.3281 -0.307263 -1.43287e-009 8.75166e-006 -1.45761e-008 13.2591 -3.04422 2.91838 -5.28733 0.15494 5.54357 33.9251 1.67426 0.139397 35.8513 -11.0229 26.7141 5.21224 25.2476 16.0534 -14.1419 8.98433 2.51796 -41.3291 3.3211 -3.45439 -16.6127 -16.5131 34.7383 -8.80202 34.2126 -8.61974 5.82328 9.61819 -0.917488 2.66447 7.90128 -9.61193 8.1911 3.91799 -5.29388 0.408093 29.147 -22.7106 2.3068 -23.9396 0.057308 0.0462048 0.000530889 0.662642 
24.8224 97.979 2.41828 -14.0063 2.70327 -83.0334 0.239372 -15.2262 -9.94637 2.93581 73.8845 13.5955 -8.72007 -14.1154 -0.431105 -1.43287e-009 8.75166e-006 -1.45761e-008 13.6052 -2.89696 3.57464 -6.42411 0.127116 6.18248 33.7335 1.66523 0.134874 34.8326 -9.52996 28.5816 4.97332 24.2574 16.7983 -14.3156 8.97385 2.50569 -41.3751 3.32299 -3.45116 -15.1379 -17.9889 37.6713 -8.93899 33.8533 -7.86428 5.82328 9.61819 -0.917488 2.50679 8.04992 -9.54987 7.24386 6.38792 -5.63738 0.528641 27.4766 -21.5592 2.48941 -24.7043 0.0965534 0.0462048 0.000530889 0.662642 
22.5528 98.1463 2.53033 -13.7921 2.01279 -84.1178 -1.08867 -17.5423 -10.2396 2.24849 68.7017 14.4807 -9.08305 -14.8539 -0.506962 -1.43287e-009 8.75166e-006 -1.45761e-008 13.7149 -2.76692 4.19521 -7.56739 -0.0664748 6.69042 33.7264 1.6642 0.135264 33.954 -8.02876 30.0765 5.10948 22.464 17.3744 -14.4479 8.98821 2.3045 -41.41 3.32156 -3.44274 -13.6061 -20.0266 39.7855 -9.69782 34.7385 -5.59632 5.82328 9.61819 -0.917488 2.5077 8.17993 -9.30875 6.22372 8.66049 -6.02988 0.457166 25.7957 -19.8835 2.58243 -25.4706 0.123956 0.0462048 0.000530889 0.662642 
20.3215 98.2422 2.61829 -13.4194 1.39984 -85.2305 -1.9186 -19.3153 -10.1934 1.78442 61.9581 15.5134 -9.76444 -14.6433 -0.533692 -1.43287e-009 8.75166e-006 -1.45761e-008 13.3024 -2.83681 4.61307 -8.13037 -0.216744 6.88526 33.6336 1.66025 0.137202 33.6203 -6.76965 31.4866 5.25611 21.5765 17.5944 -14.6088 8.98593 2.23182 -41.5424 3.33329 -3.4466 -13.2792 -21.4111 40.8992 -10.3899 35.7482 -3.33651 5.82328 9.61819 -0.917488 2.49658 8.23154 -8.83793 5.27384 10.59 -6.35453 0.295991 24.296 -18.2878 2.52046 -26.1693 0.125673 0.0462048 0.000530889 0.662642 
18.1077 98.2637 2.69407 -12.9403 0.944881 -86.1777 -2.25587 -20.3992 -9.96327 1.46822 54.0766 16.1681 -10.4901 -14.2575 -0.545034 -1.43287e-009 8.75166e-006 -1.45761e-008 12.5057 -3.17598 4.79831 -8.06687 -0.0784851 6.79497 33.5286 1.65795 0.13933 33.6026 -5.68218 32.736 5.2409 21.6761 17.6227 -14.905 8.95143 2.35371 -41.8659 3.3687 -3.46983 -14.1795 -21.9682 40.9464 -10.7141 36.8962 -2.22977 5.82328 9.61819 -0.917488 2.46758 8.03459 -8.32084 4.52109 12.284 -6.60567 0.151834 22.9323 -16.999 2.58259 -26.7874 0.147009 0.0462048 0.000530889 0.662642 
15.8902 98.2385 2.79419 -12.415 0.631332 -87.0996 -2.20905 -20.798 -9.54811 1.23325 45.8026 16.2979 -10.8942 -13.5814 -0.5072 -1.43287e-009 8.75166e-006 -1.45761e-008 11.731 -3.58693 4.91437 -7.98861 0.224141 6.66976 33.6105 1.66104 0.140289 33.6177 -4.66602 33.3528 5.09901 21.8401 17.7837 -15.0579 8.9333 2.41728 -42.1089 3.39746 -3.49144 -15.5639 -22.3101 40.0676 -10.7422 38.2836 -2.20213 5.82328 9.61819 -0.917488 2.56905 7.56288 -8.08224 3.87022 13.9208 -6.80836 0.0482109 21.5123 -15.7293 2.98177 -27.3311 0.227897 0.0462048 0.000530889 0.662642 
13.64 98.1629 2.94943 -11.9107 0.348687 -88.0844 -2.09409 -20.7841 -9.06481 1.09647 38.381 16.5541 -10.5635 -12.5753 -0.40127 -1.43287e-009 8.75166e-006 -1.45761e-008 11.029 -3.81576 4.99826 -8.11141 0.35656 6.58743 33.8003 1.66953 0.138839 33.8669 -3.79456 33.1035 4.92102 21.9379 18.0046 -14.8324 8.96481 2.28304 -42.138 3.40391 -3.50016 -17.0548 -22.7298 38.3394 -10.6425 39.2235 -2.55563 5.82328 9.61819 -0.917488 2.80362 7.05026 -8.12184 3.17682 15.5458 -6.99845 -0.0945936 20.136 -14.3802 3.4615 -27.8251 0.326413 0.0462048 0.000530889 0.662642 
11.286 97.9393 3.18636 -11.5107 -0.030615 -88.9774 -2.18668 -20.6585 -8.68742 1.0715 33.1931 17.5671 -9.50473 -12.1741 -0.321575 -1.43287e-009 8.75166e-006 -1.45761e-008 10.2715 -3.85344 4.93068 -8.11459 0.249587 6.41911 33.8967 1.66916 0.129325 34.6441 -3.24738 32.2016 4.83415 22.7108 17.8241 -14.4252 9.00833 2.14546 -42.2518 3.41694 -3.50921 -18.4027 -23.1644 35.7058 -10.7145 39.5997 -2.64417 5.82328 9.61819 -0.917488 3.03833 6.77125 -8.12461 2.45993 17.1212 -7.23958 -0.378655 19.211 -13.0914 3.90434 -28.4818 0.42782 0.0462048 0.000530889 0.662642 
8.77501 97.5143 3.53552 -11.2425 -0.037854 -89.8528 -2.46706 -20.4113 -8.31599 1.11413 30.7621 19.2677 -8.27847 -12.6675 -0.306231 -1.43287e-009 8.75166e-006 -1.45761e-008 9.68747 -3.91405 4.75458 -8.06951 0.201467 6.20552 33.9032 1.66181 0.11038 35.9573 -3.2726 30.8697 5.01893 24.6268 16.8937 -14.0795 9.02273 2.21956 -42.6346 3.45282 -3.52313 -19.5374 -23.481 32.0668 -11.1185 39.9059 -2.22295 5.82328 9.61819 -0.917488 3.2308 6.77973 -7.88345 1.73734 18.6734 -7.51108 -0.838226 18.8229 -11.6846 4.85625 -29.4919 0.649721 0.0462048 0.000530889 0.662642 
6.11178 96.9736 4.01915 -11.0497 -0.43657 -91.0132 -2.72652 -19.8445 -7.62809 1.17625 30.4539 21.0817 -7.24738 -12.7485 -0.26616 -1.43287e-009 8.75166e-006 -1.45761e-008 9.57406 -4.10406 4.64143 -8.35082 0.353911 6.11436 33.974 1.66704 0.116936 37.6346 -4.0482 29.0706 5.64054 27.4754 15.2237 -13.8175 9.01596 2.43623 -43.0091 3.48484 -3.53012 -20.6898 -23.8544 27.6626 -11.7019 40.3004 -1.43202 5.82328 9.61819 -0.917488 3.39774 7.00521 -7.37055 0.883299 20.1861 -7.69365 -1.45399 18.7779 -9.8345 6.5148 -30.5981 1.04238 0.0462048 0.000530889 0.662642 
3.29892 96.4361 4.62311 -10.924 -0.333065 -92.5809 -2.98829 -19.0944 -6.57004 1.23606 31.5687 22.4128 -6.08999 -11.554 -0.157225 -1.43287e-009 8.75166e-006 -1.45761e-008 9.54042 -4.21727 4.52485 -8.6502 0.326454 5.9993 34.2536 1.69269 0.155034 39.3195 -5.46731 26.6454 6.70189 30.7949 13.0138 -13.6874 9.01311 2.54251 -43.1595 3.50107 -3.53961 -22.068 -24.5052 23.05 -12.1569 40.5124 -0.68122 5.82328 9.61819 -0.917488 3.48292 7.47132 -6.54742 -0.198789 21.5569 -7.52764 -2.1841 19.1904 -7.95445 8.13948 -31.2351 1.43063 0.0462048 0.000530889 0.662642 
0.34662 95.9447 5.29884 -10.9844 -0.491629 -93.9461 -3.5851 -18.499 -5.65051 1.29348 33.9146 23.1026 -4.55734 -10.4624 -0.063713 -1.43287e-009 8.75166e-006 -1.45761e-008 8.78685 -4.02133 4.13591 -8.18782 -0.194731 5.50591 34.8392 1.72316 0.176333 40.6685 -7.76357 23.4492 8.07842 34.6068 10.3259 -13.7608 9.0257 2.384 -43.3542 3.53536 -3.57825 -23.4813 -25.115 18.368 -12.4833 40.604 -0.173725 5.82328 9.61819 -0.917488 3.45651 8.20473 -5.49607 -1.4239 22.7414 -6.22858 -2.79984 20.5158 -7.3889 9.83306 -31.1831 1.79576 0.0462048 0.000530889 0.662642 
-2.64485 95.557 6.00302 -11.3196 -0.849916 -94.7383 -4.7302 -17.7939 -5.36875 1.35945 36.7573 23.5681 -3.17202 -11.3285 -0.0482732 -1.43287e-009 8.75166e-006 -1.45761e-008 7.15396 -3.66489 3.48508 -6.94128 -0.796249 4.66669 35.6577 1.74254 0.149093 41.6358 -11.9921 19.4275 9.72033 39.4227 6.85256 -13.8627 9.05517 2.05771 -43.8663 3.6105 -3.64843 -24.6776 -25.1619 13.0439 -13.0825 41.1474 0.468701 5.82328 9.61819 -0.917488 3.41499 9.09752 -4.55522 -2.78267 23.6118 -2.2529 -2.47834 23.2717 -9.71101 13.0977 -30.4583 2.41797 0.0462048 0.000530889 0.662642 
-5.52622 95.4588 6.71364 -11.8564 -1.4206 -95.2717 -6.20247 -16.2006 -5.40015 1.41302 38.4328 24.1978 -2.62539 -13.7021 -0.0743685 -1.43287e-009 8.75166e-006 -1.45761e-008 5.16701 -3.51001 2.90394 -5.63688 -0.8598 3.86455 36.3984 1.75221 0.106396 41.982 -18.0211 14.6885 11.607 44.3821 2.32368 -13.7426 9.09811 1.74017 -44.4 3.68631 -3.71488 -25.9332 -24.7111 6.7438 -14.0241 42.3266 1.40939 5.82328 9.61819 -0.917488 3.38975 10.0478 -3.88805 -4.47389 23.424 3.14821 -0.896655 28.0176 -13.4574 17.4723 -28.3337 2.99534 0.0462048 0.000530889 0.662642 
-8.23058 95.775 7.40116 -12.4673 -2.11753 -96.0952 -7.56272 -13.4651 -4.96347 1.42896 37.9354 24.7883 -2.87274 -15.6529 -0.124649 -1.43287e-009 8.75166e-006 -1.45761e-008 3.09462 -3.51884 2.48996 -4.47711 -0.515601 3.18588 36.8142 1.76181 0.0926866 41.2037 -23.1826 9.40244 13.0852 46.9037 -2.35826 -13.4465 9.1618 1.32125 -44.3959 3.69801 -3.73832 -27.7437 -24.2462 0.214321 -14.465 43.3014 1.55829 5.82328 9.61819 -0.917488 3.19392 10.9958 -3.09322 -6.33757 21.1926 4.03448 -0.935633 35.635 -12.8513 19.3885 -23.3776 2.50512 0.0462048 0.000530889 0.662642 
-10.7448 96.3079 8.00554 -13.1168 -2.77771 -97.209 -8.65516 -10.2345 -3.91802 1.40955 36.1109 25.0631 -3.30655 -16.5453 -0.176235 -1.43287e-009 8.75166e-006 -1.45761e-008 0.661362 -3.18251 1.97988 -2.92957 -0.344255 2.32185 36.9871 1.77494 0.108213 39.3308 -26.953 3.87556 13.8642 47.5508 -5.94963 -13.241 9.25078 0.598554 -43.7586 3.63447 -3.71264 -29.868 -23.4779 -5.47877 -13.3535 42.636 -0.656888 5.82328 9.61819 -0.917488 2.68838 11.6527 -1.72074 -7.88728 16.6811 4.42052 -1.1579 45.8732 -13.2404 17.3943 -15.6409 1.04005 0.0462048 0.000530889 0.662642 
-13.0304 96.7464 8.48252 -13.7477 -3.18334 -98.1175 -9.47422 -7.33668 -2.89394 1.38674 34.5011 25.1406 -3.63145 -17.2896 -0.222102 -1.43287e-009 8.75166e-006 -1.45761e-008 -2.10575 -2.3524 1.21674 -0.776604 -0.39135 1.09699 37.1164 1.78532 0.121045 36.2854 -29.0374 -1.90166 13.8303 47.2771 -7.20532 -13.2005 9.32161 -0.0539519 -42.8829 3.53786 -3.65669 -31.2679 -21.1511 -10.2159 -11.0284 39.2805 -4.98886 5.82328 9.61819 -0.917488 2.08218 11.6079 0.0373408 -8.6177 11.0917 4.45697 -1.49832 56.3441 -14.3532 14.2469 -8.89851 -0.0326774 0.0462048 0.000530889 0.662642 
-15.1601 97.0839 8.85311 -14.1621 -3.13367 -98.465 -9.85742 -4.89712 -2.40291 1.3737 33.3437 25.2194 -3.87555 -18.3596 -0.273912 -1.43287e-009 8.75166e-006 -1.45761e-008 -4.56102 -1.5358 0.310573 1.58635 -0.312741 -0.318006 37.1994 1.78476 0.112549 32.5418 -28.9978 -7.97555 12.9943 46.231 -5.7538 -13.0064 9.32852 -0.0302123 -42.0349 3.44054 -3.59161 -31.4336 -17.3819 -14.6978 -8.91038 34.2788 -9.27408 5.82328 9.61819 -0.917488 1.71194 10.9894 1.63675 -8.44389 5.47876 3.9786 -2.04814 65.2661 -14.953 12.7915 -6.96412 -0.249736 0.0462048 0.000530889 0.662642 
-17.235 97.4627 9.14778 -14.2502 -2.73664 -98.3925 -9.77803 -2.63169 -2.18877 1.35417 31.9475 25.1883 -3.92579 -19.2689 -0.305512 -1.43287e-009 8.75166e-006 -1.45761e-008 -6.4394 -1.08322 -0.601631 3.80362 -0.162125 -1.70629 37.1026 1.77422 0.0965688 28.9246 -27.7094 -14.0252 11.8581 44.9397 -2.89482 -12.397 9.30369 0.509417 -41.1208 3.33737 -3.52113 -31.0897 -14.3246 -19.2504 -7.50485 30.2333 -12.2266 5.82328 9.61819 -0.917488 1.65738 10.5199 2.91955 -7.71406 -0.0152071 3.1397 -2.86272 72.0793 -14.7442 12.9942 -8.73861 -0.0534383 0.0462048 0.000530889 0.662642 
-19.2444 97.8218 9.35666 -14.1629 -2.35349 -98.3176 -9.54435 -0.550276 -1.69025 1.3242 30.3844 24.8637 -3.73536 -19.8895 -0.303024 -1.43287e-009 8.75166e-006 -1.45761e-008 -8.13858 -0.723978 -1.42094 5.73482 -0.241437 -2.96753 36.83 1.76253 0.0928505 25.8564 -26.3617 -19.4567 10.9453 43.8056 -0.448285 -11.6621 9.30889 0.856457 -40.029 3.21516 -3.43377 -30.7685 -12.3563 -23.3047 -6.3253 27.2738 -14.5389 5.82328 9.61819 -0.917488 1.81947 10.6368 4.07824 -6.8941 -5.51598 2.41112 -3.95681 76.8229 -14.161 13.3265 -10.7597 0.173376 0.0462048 0.000530889 0.662642 
-21.2001 98.1387 9.49795 -14.1202 -2.05013 -98.3861 -9.32325 1.52536 -0.83732 1.29715 28.7812 24.3107 -3.44665 -20.482 -0.286375 -1.43287e-009 8.75166e-006 -1.45761e-008 -9.57452 -0.180982 -2.13662 7.21278 -0.572982 -4.02834 36.5195 1.75525 0.103872 23.2542 -25.8081 -23.8544 10.4534 42.8861 0.582396 -11.2594 9.34514 0.697717 -38.8563 3.07989 -3.32446 -30.0901 -10.4477 -26.3689 -4.98874 24.1691 -17.1901 5.82328 9.61819 -0.917488 2.11676 11.0095 5.15972 -6.04607 -10.735 2.01924 -5.05081 79.4794 -13.7767 12.9385 -11.5697 0.251408 0.0462048 0.000530889 0.662642 
